<svg width="39" height="40" viewBox="0 0 39 40" fill="none" xmlns="http://www.w3.org/2000/svg">
<path d="M19.3759 39.2285C30.014 39.2285 38.6379 30.6047 38.6379 19.9666C38.6379 9.32847 30.014 0.70459 19.3759 0.70459C8.73783 0.70459 0.113953 9.32847 0.113953 19.9666C0.113953 30.6047 8.73783 39.2285 19.3759 39.2285Z" fill="#5FBCC9"/>
<path d="M26.573 21.522L20.259 7.97583C19.909 7.22547 18.8423 7.22547 18.4929 7.97583L12.179 21.522C9.72551 26.7858 13.568 32.8172 19.376 32.8172C25.1832 32.8172 29.0265 26.7858 26.573 21.522Z" fill="white"/>
<path d="M16.28 30.2274C16.9956 29.8142 16.868 28.2536 15.9951 26.7417C15.1222 25.2298 13.8345 24.3391 13.1188 24.7523C12.4032 25.1655 12.5308 26.7261 13.4037 28.2379C14.2766 29.7498 15.5643 30.6405 16.28 30.2274Z" fill="#5FBCC9"/>
<path d="M29.2753 10.8573L30.2985 11.4173C30.4806 11.517 30.4806 11.7794 30.2985 11.8791L29.2753 12.439C29.231 12.463 29.195 12.4997 29.1703 12.544L28.6103 13.5672C28.5107 13.7493 28.2483 13.7493 28.1486 13.5672L27.5886 12.544C27.5646 12.4997 27.5279 12.4638 27.4837 12.439L26.4605 11.8791C26.2783 11.7794 26.2783 11.517 26.4605 11.4173L27.4837 10.8573C27.5279 10.8334 27.5639 10.7966 27.5886 10.7524L28.1486 9.72918C28.2483 9.54702 28.5107 9.54702 28.6103 9.72918L29.1703 10.7524C29.195 10.7966 29.231 10.8326 29.2753 10.8573Z" fill="#0095A9"/>
<path d="M30.5038 30.0047L31.527 30.5639C31.7092 30.6636 31.7092 30.926 31.527 31.0257L30.5038 31.5849C30.4596 31.6089 30.4236 31.6456 30.3996 31.6891L29.8396 32.713C29.7399 32.8952 29.4776 32.8952 29.3779 32.713L28.8187 31.6898C28.7947 31.6456 28.7579 31.6096 28.7145 31.5856L27.6912 31.0264C27.5091 30.9267 27.5091 30.6644 27.6912 30.5647L28.7145 30.0055C28.7587 29.9815 28.7947 29.9447 28.8187 29.9013L29.3779 28.878C29.4776 28.6959 29.7399 28.6959 29.8396 28.878L30.3988 29.9013C30.4236 29.944 30.4603 29.9807 30.5038 30.0047Z" fill="#0095A9"/>
<path d="M8.19547 15.4953L9.55676 16.2396C9.79963 16.3723 9.79963 16.7209 9.55676 16.8535L8.19547 17.5979C8.137 17.6301 8.08827 17.6781 8.05604 17.7373L7.31168 19.0986C7.17899 19.3415 6.83043 19.3415 6.69775 19.0986L5.95338 17.7373C5.92115 17.6789 5.87317 17.6301 5.81395 17.5979L4.45266 16.8535C4.20979 16.7209 4.20979 16.3723 4.45266 16.2396L5.81395 15.4953C5.87242 15.463 5.92115 15.415 5.95338 15.3558L6.69775 13.9945C6.83043 13.7517 7.17899 13.7517 7.31168 13.9945L8.05604 15.3558C8.08902 15.415 8.137 15.463 8.19547 15.4953Z" fill="#0095A9"/>
</svg>
