<svg width="39" height="40" viewBox="0 0 39 40" fill="none" xmlns="http://www.w3.org/2000/svg">
<path d="M19.4139 39.2285C30.052 39.2285 38.6759 30.6046 38.6759 19.9665C38.6759 9.32841 30.052 0.704529 19.4139 0.704529C8.77584 0.704529 0.151962 9.32841 0.151962 19.9665C0.151962 30.6046 8.77584 39.2285 19.4139 39.2285Z" fill="#5FBCC9"/>
<path d="M25.0444 30.7946H13.783C12.7201 30.7946 11.858 29.9326 11.858 28.8696V9.13763H26.9694V28.8696C26.9694 29.9333 26.1073 30.7946 25.0444 30.7946Z" fill="white"/>
<path d="M24.6312 29.7886H14.1959C13.474 29.7886 12.8885 29.2032 12.8885 28.4813V17.0498H25.9385V28.4813C25.9385 29.2032 25.3531 29.7886 24.6312 29.7886Z" fill="#0095A9"/>
<path d="M14.7231 22.9643C15.3134 22.9643 15.792 22.4857 15.792 21.8953C15.792 21.305 15.3134 20.8264 14.7231 20.8264C14.1327 20.8264 13.6541 21.305 13.6541 21.8953C13.6541 22.4857 14.1327 22.9643 14.7231 22.9643Z" fill="#5FBCC9"/>
<path d="M14.4234 22.6909C14.5216 22.6272 14.5021 22.4228 14.3799 22.2344C14.2576 22.046 14.0789 21.9449 13.9807 22.0086C13.8826 22.0723 13.9021 22.2767 14.0243 22.4651C14.1465 22.6535 14.3252 22.7546 14.4234 22.6909Z" fill="#C7ECEF"/>
<path d="M22.4275 27.1673C22.8751 27.1673 23.2379 26.8046 23.2379 26.357C23.2379 25.9095 22.8751 25.5467 22.4275 25.5467C21.98 25.5467 21.6172 25.9095 21.6172 26.357C21.6172 26.8046 21.98 27.1673 22.4275 27.1673Z" fill="#5FBCC9"/>
<path d="M22.1994 26.961C22.2737 26.9128 22.2587 26.7579 22.1659 26.6149C22.0732 26.472 21.9378 26.3951 21.8636 26.4433C21.7893 26.4915 21.8043 26.6464 21.8971 26.7894C21.9898 26.9323 22.1252 27.0091 22.1994 26.961Z" fill="#C7ECEF"/>
<path d="M23.5404 25.1367C23.8157 25.1367 24.0389 24.9135 24.0389 24.6382C24.0389 24.3629 23.8157 24.1397 23.5404 24.1397C23.2651 24.1397 23.0419 24.3629 23.0419 24.6382C23.0419 24.9135 23.2651 25.1367 23.5404 25.1367Z" fill="#5FBCC9"/>
<path d="M23.4002 25.0096C23.446 24.9799 23.437 24.8847 23.38 24.7969C23.3231 24.7091 23.2398 24.662 23.194 24.6917C23.1482 24.7215 23.1572 24.8167 23.2142 24.9045C23.2711 24.9923 23.3544 25.0393 23.4002 25.0096Z" fill="#C7ECEF"/>
<path d="M21.2288 23.1232C21.4422 23.1232 21.6152 22.9502 21.6152 22.7368C21.6152 22.5234 21.4422 22.3504 21.2288 22.3504C21.0154 22.3504 20.8424 22.5234 20.8424 22.7368C20.8424 22.9502 21.0154 23.1232 21.2288 23.1232Z" fill="#5FBCC9"/>
<path d="M21.1206 23.0255C21.156 23.0025 21.1488 22.9285 21.1044 22.8601C21.0601 22.7918 20.9954 22.755 20.96 22.7779C20.9247 22.8009 20.9319 22.8749 20.9763 22.9433C21.0206 23.0116 21.0852 23.0484 21.1206 23.0255Z" fill="#C7ECEF"/>
<path d="M26.9691 14.268C28.7733 14.268 30.2359 12.8054 30.2359 11.0012C30.2359 9.197 28.7733 7.73441 26.9691 7.73441C25.1649 7.73441 23.7023 9.197 23.7023 11.0012C23.7023 12.8054 25.1649 14.268 26.9691 14.268Z" fill="#0095A9"/>
<path d="M26.3365 12.2576C26.3365 12.2816 26.335 12.3026 26.3365 12.3236C26.3425 12.4053 26.2803 12.4982 26.1611 12.4982C25.9159 12.4975 25.6701 12.4982 25.425 12.4982C25.3792 12.4982 25.3327 12.499 25.287 12.4982C25.2016 12.4967 25.1386 12.4442 25.1221 12.3633C25.1199 12.3513 25.1191 12.3386 25.1191 12.3266C25.1191 11.7696 25.1191 11.2126 25.1191 10.6564C25.1191 10.5762 25.1633 10.517 25.2353 10.4945C25.2503 10.49 25.266 10.4893 25.2818 10.4893C25.5786 10.4893 25.8755 10.49 26.1723 10.4885C26.2435 10.4878 26.3035 10.541 26.3237 10.592C26.3267 10.6002 26.326 10.6152 26.3387 10.6152C26.35 10.6152 26.353 10.6025 26.3582 10.5942C26.3957 10.5252 26.4332 10.4563 26.4707 10.3873C26.5599 10.2217 26.6498 10.056 26.739 9.89107C26.7668 9.8401 26.7952 9.78913 26.8215 9.7374C26.8425 9.69693 26.8522 9.6527 26.8447 9.60697C26.8387 9.56799 26.8387 9.52901 26.835 9.49003C26.8267 9.41432 26.8245 9.33861 26.8192 9.2629C26.8147 9.19694 26.8095 9.13172 26.8027 9.06575C26.8012 9.04851 26.808 9.03877 26.8192 9.02827C26.8709 8.98105 26.9317 8.95106 26.9999 8.93757C27.1116 8.91583 27.2105 8.94507 27.2997 9.01178C27.3822 9.07325 27.4437 9.15196 27.4924 9.24191C27.5448 9.33861 27.5793 9.44056 27.5966 9.54925C27.6108 9.6407 27.6101 9.73216 27.5958 9.82361C27.5793 9.92706 27.5628 10.0313 27.5471 10.1347C27.5433 10.1572 27.5478 10.1617 27.5718 10.1624C27.5898 10.1632 27.6078 10.1624 27.6258 10.1624C27.8679 10.1624 28.1101 10.1617 28.3514 10.1624C28.4204 10.1624 28.4871 10.1722 28.5508 10.2014C28.676 10.2591 28.7825 10.3918 28.7832 10.5477C28.7832 10.6317 28.7622 10.7074 28.7142 10.7749C28.703 10.7906 28.7052 10.7989 28.7172 10.8116C28.8492 10.9525 28.8537 11.1834 28.718 11.3356C28.6992 11.3566 28.6775 11.3746 28.6543 11.3903C28.6385 11.4008 28.6363 11.4105 28.6423 11.4293C28.6813 11.5515 28.6678 11.6684 28.5965 11.7763C28.5621 11.8281 28.5171 11.87 28.4609 11.8985C28.4301 11.9143 28.4294 11.9165 28.4346 11.9473C28.4676 12.1467 28.3252 12.3505 28.1198 12.3865C28.0951 12.391 28.0711 12.3925 28.0463 12.3925C27.6131 12.3925 27.179 12.3918 26.7458 12.3925C26.6101 12.3925 26.4879 12.3528 26.3755 12.2793C26.3672 12.2741 26.359 12.2681 26.35 12.2628C26.3485 12.2606 26.3462 12.2606 26.3365 12.2576ZM27.3619 10.3206C27.3634 10.3071 27.3642 10.2966 27.3657 10.2869C27.3867 10.1497 27.4084 10.0133 27.4294 9.87608C27.4429 9.78688 27.4586 9.69768 27.4474 9.60622C27.4294 9.46455 27.3829 9.33486 27.296 9.22017C27.263 9.1767 27.224 9.13997 27.176 9.11448C27.1243 9.08674 27.0703 9.08075 27.0134 9.09649C26.9676 9.10923 26.9661 9.11298 26.9699 9.15871C26.9766 9.23367 26.9826 9.30788 26.9879 9.38284C26.9931 9.45405 26.9969 9.52601 27.0044 9.59723C27.0126 9.67669 26.9969 9.7509 26.9594 9.82061C26.8237 10.0732 26.6873 10.3251 26.5509 10.577C26.5269 10.6212 26.5081 10.6699 26.4774 10.7081C26.4459 10.7479 26.4024 10.7786 26.362 10.8101C26.3417 10.8258 26.3365 10.8431 26.3365 10.8671C26.3372 11.1437 26.3372 11.4203 26.3372 11.6969C26.3372 11.8123 26.338 11.9278 26.3365 12.0432C26.3365 12.0612 26.341 12.0717 26.3582 12.0784C26.3889 12.0904 26.4144 12.1099 26.4407 12.1302C26.5291 12.1991 26.6303 12.2344 26.7428 12.2351C27.1775 12.2359 27.6123 12.2351 28.0471 12.2351C28.0711 12.2351 28.0943 12.2321 28.1168 12.2254C28.2525 12.1856 28.3207 12.0365 28.2615 11.9075C28.2487 11.879 28.233 11.8521 28.2187 11.8236C28.215 11.8161 28.2083 11.8093 28.212 11.7988C28.2457 11.7928 28.2802 11.7861 28.3139 11.7808C28.4766 11.7546 28.5688 11.5597 28.4571 11.4113C28.4406 11.3895 28.4249 11.3686 28.4084 11.3468C28.4032 11.3401 28.3949 11.3341 28.3979 11.3236C28.4346 11.3116 28.4729 11.3011 28.5096 11.2876C28.6288 11.2434 28.6895 11.1144 28.649 10.9953C28.6303 10.9398 28.5951 10.8978 28.5441 10.8686C28.5103 10.8491 28.4766 10.8296 28.4399 10.8086C28.4751 10.7816 28.5073 10.7584 28.5388 10.7329C28.6573 10.6384 28.6573 10.4698 28.5388 10.3753C28.4894 10.3356 28.4331 10.3191 28.3702 10.3191C28.0478 10.3199 27.7248 10.3191 27.4024 10.3191C27.3897 10.3206 27.3777 10.3206 27.3619 10.3206Z" fill="#5FBCC9"/>
<path d="M27.362 10.3206C27.3777 10.3206 27.3905 10.3206 27.4025 10.3206C27.7248 10.3206 28.0479 10.3206 28.3702 10.3206C28.4332 10.3206 28.4894 10.3371 28.5389 10.3768C28.6566 10.4713 28.6566 10.6399 28.5389 10.7344C28.5074 10.7591 28.4752 10.7831 28.4399 10.8101C28.4767 10.8311 28.5104 10.8506 28.5441 10.8701C28.5944 10.8993 28.6303 10.9413 28.6491 10.9968C28.6903 11.1167 28.6288 11.2449 28.5096 11.2891C28.4729 11.3026 28.4354 11.3131 28.398 11.3251C28.395 11.3363 28.4032 11.3416 28.4084 11.3483C28.4242 11.3701 28.4407 11.391 28.4572 11.4128C28.5689 11.5605 28.4767 11.7561 28.314 11.7823C28.2795 11.7876 28.2458 11.7943 28.212 11.8003C28.2083 11.8108 28.215 11.8176 28.2188 11.8251C28.233 11.8528 28.2488 11.8805 28.2615 11.909C28.32 12.038 28.2525 12.1871 28.1168 12.2269C28.0944 12.2336 28.0711 12.2366 28.0471 12.2366C27.6124 12.2366 27.1776 12.2366 26.7428 12.2366C26.6304 12.2366 26.5299 12.2006 26.4407 12.1317C26.4152 12.1114 26.389 12.0919 26.3583 12.0799C26.341 12.0732 26.3358 12.0627 26.3365 12.0447C26.3373 11.9293 26.3373 11.8138 26.3373 11.6984C26.3373 11.4218 26.3373 11.1452 26.3365 10.8686C26.3365 10.8446 26.3418 10.8273 26.362 10.8116C26.4025 10.7794 26.4452 10.7486 26.4775 10.7097C26.5089 10.6714 26.5269 10.6227 26.5509 10.5785C26.6873 10.3266 26.8238 10.0747 26.9595 9.82212C26.9969 9.7524 27.0127 9.67819 27.0044 9.59873C26.9969 9.52752 26.9939 9.45631 26.9879 9.38434C26.9819 9.30938 26.9759 9.23517 26.9699 9.16021C26.9662 9.11448 26.9677 9.11074 27.0134 9.09799C27.0696 9.0815 27.1244 9.08825 27.1761 9.11598C27.2241 9.14222 27.263 9.17895 27.296 9.22168C27.383 9.33562 27.4295 9.46605 27.4474 9.60773C27.4594 9.69918 27.4437 9.78838 27.4295 9.87759C27.4085 10.0148 27.3867 10.1512 27.3657 10.2884C27.3635 10.2966 27.3627 10.3071 27.362 10.3206Z" fill="#FEFEFE"/>
</svg>
