<svg width="12" height="22" viewBox="0 0 12 22" fill="none" xmlns="http://www.w3.org/2000/svg">
<path d="M7.50794 16.9789C7.50794 18.6232 7.50753 20.2675 7.50932 21.9117C7.50946 21.9779 7.49802 22.0001 7.42842 22C6.18397 21.9975 4.93951 21.9975 3.69505 21.9998C3.62766 22 3.61319 21.9817 3.61319 21.9135C3.61498 18.6249 3.61485 15.3363 3.61457 12.0476C3.61457 11.936 3.6289 11.949 3.51907 11.949C2.49277 11.9488 1.46647 11.948 0.440036 11.9506C0.370302 11.9508 0.352524 11.9331 0.352662 11.86C0.355005 10.6196 0.355005 9.37919 0.352662 8.1388C0.352524 8.0655 0.370715 8.04786 0.440311 8.04801C1.46895 8.05044 2.49759 8.04973 3.52623 8.04973C3.61485 8.04973 3.61498 8.04958 3.61498 7.95793C3.61526 6.98518 3.60961 6.01243 3.61746 5.03983C3.62408 4.22256 3.75156 3.42652 4.0728 2.67437C4.59566 1.45004 5.48649 0.65644 6.70876 0.257558C7.2341 0.0860151 7.77406 0.00841898 8.32297 0.00167773C9.0877 -0.00778871 9.8516 0.0236227 10.6147 0.0752578C10.8367 0.090318 11.0582 0.116136 11.2799 0.134638C11.3325 0.139085 11.3529 0.156726 11.3528 0.216824C11.3509 1.3353 11.3509 2.45392 11.3528 3.57239C11.3529 3.63507 11.3324 3.64597 11.278 3.64583C10.6144 3.6441 9.95082 3.64296 9.28739 3.64583C9.03216 3.64697 8.77886 3.67494 8.53121 3.74451C7.99787 3.89439 7.67814 4.25153 7.56816 4.81493C7.51897 5.06694 7.50794 5.32167 7.50794 5.5777C7.50808 6.37359 7.50891 7.16949 7.50642 7.96525C7.50615 8.0361 7.52627 8.0513 7.59132 8.05116C8.77141 8.04915 9.95165 8.04958 11.1317 8.04973C11.2249 8.04973 11.2199 8.04299 11.2081 8.13822C11.1159 8.8723 11.0247 9.60653 10.9336 10.3407C10.8718 10.8382 10.8108 11.3356 10.7493 11.833C10.7464 11.8567 10.7408 11.8802 10.7398 11.904C10.7383 11.9367 10.7246 11.9518 10.6927 11.9492C10.6745 11.9477 10.656 11.949 10.6375 11.949C9.62269 11.949 8.60783 11.9499 7.59297 11.9472C7.52145 11.947 7.50642 11.9677 7.50656 12.039C7.50849 13.6856 7.50794 15.3321 7.50794 16.9789Z" fill="white"/>
</svg>
