<svg width="32" height="23" viewBox="0 0 32 23" fill="none" xmlns="http://www.w3.org/2000/svg">
<path d="M12.7061 15.9175V6.71319L20.8237 11.3156L12.7061 15.9175ZM30.7629 3.81701C30.4057 2.47657 29.3532 1.42102 28.017 1.06279C25.5949 0.411736 15.8825 0.411736 15.8825 0.411736C15.8825 0.411736 6.17017 0.411736 3.74804 1.06279C2.41175 1.42102 1.35928 2.47657 1.00213 3.81701C0.353119 6.24646 0.353119 11.3154 0.353119 11.3154C0.353119 11.3154 0.353119 16.3842 1.00213 18.8137C1.35928 20.1542 2.41175 21.2097 3.74804 21.5681C6.17017 22.219 15.8825 22.219 15.8825 22.219C15.8825 22.219 25.5949 22.219 28.017 21.5681C29.3532 21.2097 30.4057 20.1542 30.7629 18.8137C31.4119 16.3842 31.4119 11.3154 31.4119 11.3154C31.4119 11.3154 31.4119 6.24646 30.7629 3.81701Z" fill="white"/>
</svg>
