<svg width="23" height="22" viewBox="0 0 23 22" fill="none" xmlns="http://www.w3.org/2000/svg">
<path d="M11.5002 0C8.51506 0 8.13968 0.01375 6.96681 0.066C5.79393 0.121 4.99506 0.30525 4.29518 0.5775C3.56106 0.853626 2.89611 1.28676 2.34681 1.84663C1.78729 2.39621 1.35421 3.06108 1.07768 3.795C0.805433 4.4935 0.619808 5.29375 0.566183 6.4625C0.513933 7.63812 0.500183 8.01213 0.500183 11.0014C0.500183 13.9879 0.513933 14.3619 0.566183 15.5347C0.621183 16.7063 0.805433 17.5051 1.07768 18.205C1.35956 18.9282 1.73493 19.5415 2.34681 20.1534C2.95731 20.7652 3.57056 21.142 4.29381 21.4225C4.99506 21.6947 5.79256 21.8804 6.96406 21.934C8.13831 21.9862 8.51231 22 11.5002 22C14.4881 22 14.8607 21.9862 16.0349 21.934C17.2051 21.879 18.0067 21.6947 18.7066 21.4225C19.4402 21.1462 20.1047 20.7131 20.6536 20.1534C21.2654 19.5415 21.6408 18.9282 21.9227 18.205C22.1936 17.5051 22.3792 16.7063 22.4342 15.5347C22.4864 14.3619 22.5002 13.9879 22.5002 11C22.5002 8.01213 22.4864 7.63813 22.4342 6.46388C22.3792 5.29375 22.1936 4.4935 21.9227 3.795C21.6462 3.06106 21.2131 2.39618 20.6536 1.84663C20.1044 1.28655 19.4394 0.853387 18.7052 0.5775C18.0039 0.30525 17.2037 0.119625 16.0336 0.066C14.8593 0.01375 14.4867 0 11.4974 0H11.5016H11.5002ZM10.5143 1.98275H11.5016C14.4386 1.98275 14.7864 1.99238 15.9456 2.046C17.0181 2.09413 17.6011 2.27425 17.9888 2.42412C18.5017 2.6235 18.8688 2.86275 19.2538 3.24775C19.6388 3.63275 19.8767 3.9985 20.0761 4.51275C20.2273 4.89913 20.4061 5.48213 20.4542 6.55463C20.5078 7.71375 20.5188 8.06163 20.5188 10.9973C20.5188 13.9329 20.5078 14.2821 20.4542 15.4412C20.4061 16.5138 20.2259 17.0954 20.0761 17.4831C19.8997 17.9607 19.6182 18.3926 19.2524 18.7467C18.8674 19.1318 18.5017 19.3696 17.9874 19.569C17.6024 19.7203 17.0194 19.899 15.9456 19.9485C14.7864 20.0007 14.4386 20.0131 11.5016 20.0131C8.56456 20.0131 8.21531 20.0007 7.05618 19.9485C5.98368 19.899 5.40206 19.7203 5.01431 19.569C4.53649 19.3929 4.10423 19.1119 3.74931 18.7467C3.38322 18.392 3.1013 17.9598 2.92431 17.4818C2.77443 17.0954 2.59431 16.5124 2.54618 15.4399C2.49393 14.2808 2.48293 13.9329 2.48293 10.9945C2.48293 8.0575 2.49393 7.711 2.54618 6.55187C2.59568 5.47937 2.77443 4.89638 2.92568 4.50863C3.12506 3.99575 3.36431 3.62862 3.74931 3.24362C4.13431 2.85862 4.50006 2.62075 5.01431 2.42138C5.40206 2.27013 5.98368 2.09138 7.05618 2.04188C8.07093 1.99513 8.46418 1.98138 10.5143 1.98V1.98275ZM17.3728 3.80875C17.1995 3.80875 17.0278 3.84289 16.8677 3.90923C16.7075 3.97557 16.562 4.0728 16.4394 4.19537C16.3169 4.31794 16.2196 4.46346 16.1533 4.62361C16.087 4.78376 16.0528 4.95541 16.0528 5.12875C16.0528 5.30209 16.087 5.47374 16.1533 5.63389C16.2196 5.79404 16.3169 5.93956 16.4394 6.06213C16.562 6.1847 16.7075 6.28193 16.8677 6.34827C17.0278 6.41461 17.1995 6.44875 17.3728 6.44875C17.7229 6.44875 18.0586 6.30968 18.3062 6.06213C18.5537 5.81458 18.6928 5.47884 18.6928 5.12875C18.6928 4.77866 18.5537 4.44292 18.3062 4.19537C18.0586 3.94782 17.7229 3.80875 17.3728 3.80875ZM11.5016 5.3515C10.7523 5.33981 10.0082 5.47729 9.31253 5.75594C8.61689 6.0346 7.98364 6.44885 7.44964 6.97458C6.91564 7.50032 6.49156 8.12703 6.20209 8.81823C5.91262 9.50944 5.76355 10.2513 5.76355 11.0007C5.76355 11.7501 5.91262 12.4919 6.20209 13.1831C6.49156 13.8743 6.91564 14.5011 7.44964 15.0268C7.98364 15.5525 8.61689 15.9668 9.31253 16.2454C10.0082 16.5241 10.7523 16.6616 11.5016 16.6499C12.9846 16.6267 14.399 16.0214 15.4395 14.9645C16.4801 13.9076 17.0633 12.4839 17.0633 11.0007C17.0633 9.51751 16.4801 8.09382 15.4395 7.03691C14.399 5.97999 12.9846 5.37464 11.5016 5.3515ZM11.5016 7.33288C12.4741 7.33288 13.4069 7.71923 14.0946 8.40695C14.7823 9.09467 15.1687 10.0274 15.1687 11C15.1687 11.9726 14.7823 12.9053 14.0946 13.593C13.4069 14.2808 12.4741 14.6671 11.5016 14.6671C10.529 14.6671 9.59623 14.2808 8.90851 13.593C8.22079 12.9053 7.83443 11.9726 7.83443 11C7.83443 10.0274 8.22079 9.09467 8.90851 8.40695C9.59623 7.71923 10.529 7.33288 11.5016 7.33288Z" fill="white"/>
</svg>
