<svg width="66" height="18" viewBox="0 0 66 18" fill="none" xmlns="http://www.w3.org/2000/svg">
<path d="M17.1658 5.45037C17.3355 5.41919 17.4968 5.3965 17.6514 5.38044C17.8052 5.36532 17.9674 5.35681 18.137 5.35681C18.3067 5.35681 18.4755 5.36532 18.6461 5.38044C18.8158 5.3965 18.9695 5.41919 19.1082 5.45037C19.1542 5.68381 19.2011 5.99001 19.247 6.37088C19.2929 6.75174 19.3164 7.07401 19.3164 7.33769C19.6398 6.80939 20.0682 6.35103 20.5997 5.9626C21.1313 5.57418 21.8137 5.37949 22.6462 5.37949C22.769 5.37949 22.8965 5.38327 23.0278 5.39083C23.159 5.39934 23.2706 5.41068 23.3634 5.4258C23.3943 5.56567 23.4168 5.7131 23.4327 5.86904C23.4477 6.02498 23.4562 6.18753 23.4562 6.35859C23.4562 6.54477 23.4449 6.73946 23.4215 6.9417C23.398 7.14395 23.3709 7.33769 23.3409 7.52481C23.2171 7.49362 22.6406 7.56167 22.5637 7.56167C22.1475 7.56167 19.456 8.17786 19.456 11.4629V17.4065C19.2864 17.4377 19.0979 17.4604 18.8898 17.4764C18.6817 17.4916 18.4923 17.5001 18.3236 17.5001C18.1539 17.5001 17.9655 17.4916 17.7574 17.4764C17.5493 17.4604 17.3524 17.4377 17.1677 17.4065V5.45037H17.1658Z" fill="#385CAD"/>
<path d="M9.14113 13.525H3.28297L2.23114 17.4064C2.04553 17.4376 1.85897 17.4613 1.67336 17.4764C1.48774 17.4915 1.30119 17.5 1.11557 17.5C0.914957 17.5 0.719028 17.4915 0.525913 17.4764C0.332797 17.4603 0.157493 17.4376 0 17.4064L5.02101 0.593562C5.20663 0.562375 5.40724 0.538748 5.62192 0.523627C5.8366 0.508506 6.05784 0.5 6.28751 0.5C6.48719 0.5 6.69531 0.508506 6.90998 0.523627C7.12466 0.539693 7.33184 0.562375 7.53245 0.593562L12.5319 17.4064C12.3604 17.4376 12.1672 17.4613 11.9526 17.4764C11.7379 17.4915 11.5307 17.5 11.3301 17.5C11.1445 17.5 10.9542 17.4915 10.7611 17.4764C10.5679 17.4603 10.3851 17.4376 10.2136 17.4064L9.14113 13.525ZM3.86232 11.444H8.56178L6.20127 2.86174L3.86232 11.444Z" fill="#385CAD"/>
<path d="M31.0955 13.525H25.2373L24.1855 17.4064C23.9999 17.4376 23.8133 17.4613 23.6277 17.4764C23.4421 17.4915 23.2555 17.5 23.0699 17.5C22.8693 17.5 22.6734 17.4915 22.4802 17.4764C22.2871 17.4603 22.1118 17.4376 21.9543 17.4064L26.9753 0.593562C27.161 0.562375 27.3616 0.538748 27.5763 0.523627C27.7909 0.508506 28.0122 0.5 28.2418 0.5C28.4415 0.5 28.6496 0.508506 28.8643 0.523627C29.079 0.539693 29.2862 0.562375 29.4868 0.593562L34.4862 17.4064C34.3147 17.4376 34.1216 17.4613 33.9069 17.4764C33.6922 17.4915 33.485 17.5 33.2844 17.5C33.0988 17.5 32.9085 17.4915 32.7154 17.4764C32.5223 17.4603 32.3395 17.4376 32.1679 17.4064L31.0955 13.525ZM25.8166 11.444H30.5161L28.1556 2.86174L25.8166 11.444Z" fill="#0095A9"/>
<path d="M37.2835 0.521737C37.0904 0.507561 36.9151 0.5 36.7576 0.5C36.6001 0.5 36.4248 0.507561 36.2317 0.521737C36.0386 0.535913 35.8633 0.55765 35.7058 0.585057V17.4149C35.8633 17.4433 36.0386 17.4641 36.2317 17.4783C36.4248 17.4924 36.6001 17.5 36.7576 17.5C36.9151 17.5 37.0904 17.4924 37.2835 17.4783C37.4767 17.4641 37.652 17.4424 37.8095 17.4149V0.585057C37.652 0.556704 37.4767 0.535913 37.2835 0.521737Z" fill="#0095A9"/>
<path d="M13.2181 7.18931H11.7042C11.6732 7.06456 11.6498 6.91902 11.6338 6.75458C11.6179 6.59013 11.6104 6.42947 11.6104 6.27259C11.6104 6.11665 11.6179 5.95599 11.6338 5.79155C11.6488 5.6271 11.6723 5.48251 11.7042 5.35681H15.4784V17.4056C15.3077 17.4368 15.1174 17.4604 14.9074 17.4764C14.6975 17.4916 14.5071 17.5001 14.3365 17.5001C14.1809 17.5001 13.999 17.4916 13.7891 17.4764C13.5791 17.4604 13.3888 17.4368 13.2181 17.4056V7.18931Z" fill="#385CAD"/>
<path d="M14.2803 3.83233C15.193 3.83233 15.933 3.08636 15.933 2.16617C15.933 1.24597 15.193 0.5 14.2803 0.5C13.3675 0.5 12.6275 1.24597 12.6275 2.16617C12.6275 3.08636 13.3675 3.83233 14.2803 3.83233Z" fill="#385CAD"/>
<path d="M46 9.58593C46 8.69661 45.776 8.07853 45.3269 7.73169C44.8788 7.38485 44.2282 7.2119 43.3751 7.2119C42.852 7.2119 42.3617 7.25348 41.9061 7.33665C41.4496 7.41982 41.0052 7.5285 40.5712 7.66459C40.2872 7.16748 40.1447 6.57209 40.1447 5.8784C40.6528 5.71301 41.2134 5.58448 41.8274 5.49376C42.4405 5.40303 43.0311 5.35767 43.5992 5.35767C45.0944 5.35767 46.2306 5.70073 47.0087 6.38685C47.7859 7.07298 48.1749 8.17021 48.1749 9.67666V16.9348C47.6509 17.0558 47.0162 17.1796 46.2681 17.3081C45.52 17.4357 44.7579 17.5 43.9798 17.5C43.2467 17.5 42.5849 17.4319 41.9943 17.2968C41.4037 17.1607 40.9031 16.9424 40.4915 16.6409C40.08 16.3394 39.7622 15.9548 39.5381 15.4879C39.3141 15.0211 39.2016 14.4559 39.2016 13.7915C39.2016 13.1432 39.3319 12.5743 39.5944 12.0847C39.8559 11.5952 40.2112 11.1878 40.6603 10.8637C41.1093 10.5395 41.6249 10.2985 42.208 10.1397C42.7911 9.98191 43.4042 9.90253 44.0473 9.90253C44.5254 9.90253 44.9182 9.91387 45.2247 9.93655C45.5313 9.95923 45.7891 9.9857 45.9981 10.0159V9.58593H46ZM46 11.7794C45.776 11.7492 45.4919 11.719 45.1479 11.6887C44.8038 11.6585 44.5123 11.6434 44.2732 11.6434C43.3461 11.6434 42.6392 11.8172 42.1536 12.1631C41.6671 12.51 41.4243 13.0373 41.4243 13.7461C41.4243 14.1988 41.5058 14.5532 41.6708 14.8094C41.8349 15.0655 42.0411 15.262 42.2877 15.3972C42.5342 15.5333 42.807 15.6155 43.1061 15.6457C43.4051 15.676 43.6892 15.6911 43.9582 15.6911C44.3023 15.6911 44.6566 15.6722 45.0232 15.6344C45.3897 15.5966 45.715 15.5408 45.9991 15.4652V11.7794H46Z" fill="#0095A9"/>
<path d="M65.039 9.67855C65.039 7.29223 63.1059 5.35767 60.722 5.35767C59.4273 5.35767 58.2658 5.92944 57.4746 6.83293C56.6834 5.92944 55.5228 5.35767 54.2273 5.35767C51.8433 5.35767 49.9103 7.29223 49.9103 9.67855L49.944 17.414C50.1015 17.4423 50.2768 17.4641 50.47 17.4782C50.6631 17.4924 50.8384 17.5 50.9959 17.5C51.1534 17.5 51.3287 17.4924 51.5218 17.4782C51.7149 17.4641 51.8902 17.4423 52.0477 17.414L52.058 9.67855C52.058 8.4783 53.0301 7.50582 54.2282 7.50582C55.4263 7.50582 56.3984 8.4783 56.3984 9.67855L56.4247 17.414C56.5822 17.4423 56.7575 17.4641 56.9506 17.4782C57.1437 17.4924 57.319 17.5 57.4765 17.5C57.4784 17.5 57.4812 17.5 57.4831 17.5C57.4849 17.5 57.4877 17.5 57.4896 17.5C57.6471 17.5 57.8224 17.4924 58.0155 17.4782C58.0465 17.4764 58.0755 17.4735 58.1055 17.4707C58.2686 17.4565 58.4168 17.4376 58.5489 17.414L58.5471 13.2963L58.5518 9.6776C58.5518 8.47736 59.5239 7.50488 60.722 7.50488C61.92 7.50488 62.8922 8.47736 62.8922 9.6776L62.9184 17.413C63.0759 17.4414 63.2512 17.4631 63.4443 17.4773C63.6375 17.4915 63.8128 17.499 63.9702 17.499C64.1277 17.499 64.3059 17.4915 64.5065 17.4773C64.7071 17.4631 64.8852 17.4414 65.0427 17.413L65.039 9.67855Z" fill="#0095A9"/>
<path d="M42.8644 2.44582C42.8644 2.23224 42.8119 2.07535 42.7079 1.97612C42.6038 1.87689 42.4491 1.82774 42.2448 1.82774C42.1107 1.82774 41.9879 1.83719 41.8773 1.85421C41.7666 1.87216 41.6673 1.8939 41.5801 1.91942C41.5632 1.89012 41.5492 1.84853 41.537 1.79278C41.5248 1.73796 41.5192 1.68598 41.5192 1.63684C41.6063 1.61132 41.7141 1.58864 41.8416 1.57163C41.9691 1.55367 42.1004 1.54517 42.2344 1.54517C42.5597 1.54517 42.8016 1.61416 42.9591 1.75214C43.1166 1.89012 43.1953 2.10654 43.1953 2.4014V4.04016C43.0781 4.06284 42.9347 4.08553 42.7669 4.10821C42.5991 4.13089 42.4397 4.14223 42.2888 4.14223C41.9766 4.14223 41.731 4.08269 41.551 3.96267C41.371 3.84264 41.282 3.64796 41.282 3.37861C41.282 3.24914 41.3082 3.13289 41.3598 3.03082C41.4123 2.92875 41.4835 2.84275 41.5763 2.77282C41.6682 2.70288 41.7798 2.6509 41.9091 2.61499C42.0385 2.57908 42.1801 2.56112 42.3347 2.56112C42.4557 2.56112 42.5597 2.5649 42.6469 2.57341C42.7341 2.58191 42.8063 2.58853 42.8635 2.59514V2.44582H42.8644ZM42.8644 2.87867C42.8072 2.87205 42.736 2.86449 42.6507 2.85693C42.5654 2.84842 42.4838 2.84464 42.4069 2.84464C42.1548 2.84464 41.9607 2.89001 41.8229 2.98073C41.6851 3.07146 41.6167 3.20094 41.6167 3.3701C41.6167 3.4769 41.6373 3.5629 41.6795 3.62811C41.7217 3.69332 41.776 3.74246 41.8435 3.77649C41.911 3.81051 41.9841 3.83319 42.0648 3.84453C42.1454 3.85587 42.226 3.86154 42.3066 3.86154C42.4107 3.86154 42.5082 3.85682 42.5991 3.84737C42.69 3.83792 42.7791 3.82469 42.8663 3.80862V2.87867H42.8644Z" fill="#385CAD"/>
<path d="M43.9875 1.87594H43.665C43.6612 1.85987 43.6594 1.84003 43.6575 1.81735C43.6556 1.79466 43.6547 1.77009 43.6547 1.74458C43.6547 1.71906 43.6556 1.6926 43.6575 1.66708C43.6594 1.64156 43.6622 1.61983 43.665 1.60376H44.3193V4.08458C44.2987 4.08742 44.2715 4.09025 44.2359 4.09214C44.2003 4.09403 44.1731 4.09498 44.1525 4.09498C44.1356 4.09498 44.1084 4.09403 44.0718 4.09214C44.0353 4.09025 44.0062 4.08836 43.9865 4.08458V1.87594H43.9875Z" fill="#385CAD"/>
<path d="M45.0036 1.6039C45.0307 1.60107 45.0561 1.59823 45.0814 1.59634C45.1067 1.59445 45.1311 1.59351 45.1545 1.59351C45.1817 1.59351 45.207 1.59445 45.2304 1.59634C45.2539 1.59823 45.2792 1.60012 45.3064 1.6039C45.3129 1.6625 45.3176 1.73149 45.3214 1.81087C45.3251 1.89026 45.326 1.96208 45.326 2.0273C45.3935 1.90727 45.4873 1.80615 45.6082 1.72298C45.7291 1.64076 45.8885 1.59918 46.0863 1.59918C46.1032 1.59918 46.121 1.59918 46.1388 1.59918C46.1566 1.59918 46.1782 1.60107 46.2016 1.6039C46.2119 1.65872 46.2166 1.7107 46.2166 1.75984C46.2166 1.81182 46.2119 1.86191 46.2016 1.91105C46.1744 1.90822 46.1538 1.90633 46.1388 1.90633C46.1238 1.90633 46.1079 1.90633 46.091 1.90633C45.8623 1.90633 45.6795 1.97626 45.5426 2.11519C45.4048 2.25506 45.3364 2.4866 45.3364 2.81076V4.08472C45.3167 4.08756 45.2885 4.09039 45.2529 4.09228C45.2173 4.09417 45.1901 4.09512 45.1695 4.09512C45.1526 4.09512 45.1254 4.09417 45.0889 4.09228C45.0523 4.09039 45.0232 4.0885 45.0036 4.08472V1.6039Z" fill="#385CAD"/>
<path d="M47.7232 1.60376C47.7504 1.60093 47.7757 1.59809 47.801 1.5962C47.8263 1.59431 47.8507 1.59336 47.8741 1.59336C47.9013 1.59336 47.9266 1.59431 47.95 1.5962C47.9735 1.59809 47.9988 1.59998 48.026 1.60376C48.0325 1.66236 48.0372 1.73229 48.041 1.81262C48.0447 1.8939 48.0457 1.96667 48.0457 2.03188C48.0757 1.97045 48.1141 1.90996 48.1619 1.85232C48.2088 1.79372 48.2641 1.74174 48.3278 1.69638C48.3916 1.65101 48.4647 1.61416 48.5472 1.58675C48.6297 1.55934 48.7225 1.54517 48.8266 1.54517C48.9241 1.54517 49.0075 1.55651 49.0787 1.57919C49.149 1.60187 49.21 1.634 49.2625 1.6737C49.314 1.71433 49.3581 1.76253 49.3937 1.81735C49.4293 1.87216 49.4622 1.93454 49.4922 2.00258C49.5287 1.9506 49.5709 1.89768 49.6178 1.84192C49.6646 1.78711 49.7181 1.73702 49.779 1.69354C49.839 1.65007 49.9093 1.61416 49.9881 1.58675C50.0668 1.55934 50.1549 1.54517 50.2524 1.54517C50.5515 1.54517 50.7671 1.62833 50.8993 1.79278C51.0315 1.95816 51.098 2.19443 51.098 2.50253V4.08364C51.0783 4.08647 51.0502 4.08931 51.0146 4.0912C50.979 4.09309 50.9518 4.09403 50.9311 4.09403C50.9143 4.09403 50.8871 4.09309 50.8505 4.0912C50.814 4.08931 50.7849 4.08742 50.7652 4.08364V2.61594C50.7652 2.3532 50.7212 2.15852 50.6321 2.03188C50.543 1.90524 50.4099 1.84192 50.2318 1.84192C50.124 1.84192 50.0303 1.86271 49.9496 1.90524C49.869 1.94777 49.8015 2.00447 49.7481 2.07535C49.6946 2.14623 49.6534 2.23034 49.6243 2.3258C49.5962 2.42125 49.5812 2.52237 49.5812 2.63011V4.08458C49.5615 4.08742 49.5334 4.09025 49.4978 4.09214C49.4622 4.09403 49.435 4.09498 49.4143 4.09498C49.3975 4.09498 49.3703 4.09403 49.3337 4.09214C49.2972 4.09025 49.2681 4.08836 49.2484 4.08458V2.55262C49.2484 2.30312 49.2072 2.11788 49.1247 1.99786C49.0422 1.87783 48.9241 1.81829 48.7694 1.81829C48.6653 1.81829 48.5697 1.84381 48.4825 1.8939C48.3953 1.94399 48.3194 2.01487 48.2556 2.1056C48.1919 2.19632 48.1422 2.30406 48.1075 2.42881C48.0719 2.55356 48.055 2.6906 48.055 2.83992V4.08458C48.0353 4.08742 48.0072 4.09025 47.9716 4.09214C47.936 4.09403 47.9088 4.09498 47.8882 4.09498C47.8713 4.09498 47.8441 4.09403 47.8075 4.09214C47.771 4.09025 47.7419 4.08836 47.7222 4.08458V1.60376H47.7232Z" fill="#385CAD"/>
<path d="M51.8873 1.87594H51.5649C51.5611 1.85987 51.5592 1.84003 51.5574 1.81735C51.5555 1.79466 51.5546 1.77009 51.5546 1.74458C51.5546 1.71906 51.5555 1.6926 51.5574 1.66708C51.5592 1.64156 51.562 1.61983 51.5649 1.60376H52.2192V4.08458C52.1986 4.08742 52.1714 4.09025 52.1358 4.09214C52.1002 4.09403 52.073 4.09498 52.0523 4.09498C52.0355 4.09498 52.0083 4.09403 51.9717 4.09214C51.9352 4.09025 51.9061 4.08836 51.8864 4.08458V1.87594H51.8873Z" fill="#385CAD"/>
<path d="M52.9045 1.60379C52.9317 1.60096 52.957 1.59812 52.9823 1.59623C53.0077 1.59434 53.032 1.5934 53.0555 1.5934C53.0827 1.5934 53.108 1.59434 53.1314 1.59623C53.1548 1.59812 53.1802 1.60001 53.2073 1.60379C53.2139 1.66239 53.2186 1.73516 53.2223 1.82305C53.2261 1.91094 53.227 1.98655 53.227 2.05176C53.2608 1.99316 53.3039 1.93457 53.3583 1.87408C53.4117 1.81454 53.4745 1.75973 53.5467 1.71153C53.6189 1.66333 53.7023 1.62364 53.7961 1.59245C53.8898 1.56126 53.992 1.54614 54.1035 1.54614C54.3988 1.54614 54.6135 1.6312 54.7476 1.80131C54.8816 1.97143 54.9491 2.21053 54.9491 2.51862V4.08461C54.9285 4.08745 54.9013 4.09028 54.8657 4.09217C54.8301 4.09406 54.8029 4.09501 54.7823 4.09501C54.7654 4.09501 54.7382 4.09406 54.7016 4.09217C54.6651 4.09028 54.636 4.08839 54.6163 4.08461V2.61597C54.6163 2.34001 54.5723 2.14248 54.4832 2.02246C54.3942 1.90244 54.261 1.8429 54.0829 1.8429C53.9657 1.8429 53.8542 1.86558 53.7501 1.91094C53.6461 1.9563 53.5561 2.02246 53.4811 2.10752C53.4051 2.19352 53.3461 2.29937 53.302 2.42601C53.258 2.55265 53.2364 2.69724 53.2364 2.85885V4.08461C53.2167 4.08745 53.1886 4.09028 53.153 4.09217C53.1173 4.09406 53.0902 4.09501 53.0695 4.09501C53.0527 4.09501 53.0255 4.09406 52.9889 4.09217C52.9523 4.09028 52.9233 4.08839 52.9036 4.08461V1.60379H52.9045Z" fill="#385CAD"/>
<path d="M55.7947 2.89291C55.7947 3.22368 55.8734 3.46657 56.0309 3.6225C56.1884 3.77844 56.4256 3.85594 56.7406 3.85594C56.8681 3.85594 56.9862 3.84554 57.0959 3.82475C57.2046 3.80396 57.3115 3.7756 57.4155 3.73969C57.4324 3.7756 57.4455 3.81908 57.4558 3.87106C57.4662 3.92304 57.4727 3.97029 57.4765 4.01187C57.379 4.0544 57.2646 4.08653 57.1343 4.10922C57.0031 4.1319 56.8606 4.14324 56.7059 4.14324C56.4846 4.14324 56.2934 4.11205 56.134 4.04873C55.9747 3.98541 55.8434 3.89752 55.7412 3.78411C55.6391 3.6707 55.5631 3.53556 55.5144 3.37773C55.4656 3.22085 55.4413 3.0479 55.4413 2.85983C55.4413 2.67837 55.4637 2.50826 55.5087 2.34949C55.5537 2.19071 55.6231 2.05084 55.715 1.93082C55.8069 1.81079 55.9259 1.71723 56.0703 1.64919C56.2147 1.58114 56.3871 1.54712 56.5887 1.54712C56.7565 1.54712 56.9056 1.57453 57.0368 1.63029C57.168 1.6851 57.2777 1.7626 57.3668 1.86088C57.4558 1.96012 57.5224 2.07825 57.5683 2.21623C57.6133 2.35421 57.6358 2.50353 57.6358 2.66609C57.6358 2.69538 57.6349 2.73224 57.633 2.77761C57.6312 2.82297 57.6283 2.86172 57.6255 2.89385H55.7947V2.89291ZM57.3049 2.62545C57.3049 2.52527 57.2918 2.42604 57.2646 2.3287C57.2374 2.23135 57.1962 2.1463 57.139 2.07353C57.0818 2.00075 57.0077 1.94122 56.9177 1.89585C56.8268 1.85049 56.7181 1.82781 56.5906 1.82781C56.3553 1.82781 56.1725 1.89774 56.0422 2.03667C55.9109 2.17654 55.8322 2.37217 55.8059 2.62545H57.3049Z" fill="#385CAD"/>
<path d="M58.1655 1.6039C58.1927 1.60107 58.218 1.59823 58.2433 1.59634C58.2686 1.59445 58.293 1.59351 58.3164 1.59351C58.3436 1.59351 58.3689 1.59445 58.3924 1.59634C58.4158 1.59823 58.4411 1.60012 58.4683 1.6039C58.4749 1.6625 58.4795 1.73149 58.4833 1.81087C58.487 1.89026 58.488 1.96208 58.488 2.0273C58.5555 1.90727 58.6492 1.80615 58.7702 1.72298C58.8911 1.64076 59.0505 1.59918 59.2483 1.59918C59.2651 1.59918 59.283 1.59918 59.3008 1.59918C59.3195 1.59918 59.3401 1.60107 59.3636 1.6039C59.3739 1.65872 59.3786 1.7107 59.3786 1.75984C59.3786 1.81182 59.3739 1.86191 59.3636 1.91105C59.3364 1.90822 59.3158 1.90633 59.3008 1.90633C59.2858 1.90633 59.2698 1.90633 59.253 1.90633C59.0242 1.90633 58.8414 1.97626 58.7045 2.11519C58.5667 2.25506 58.4983 2.4866 58.4983 2.81076V4.08472C58.4786 4.08756 58.4505 4.09039 58.4149 4.09228C58.3792 4.09417 58.3521 4.09512 58.3314 4.09512C58.3146 4.09512 58.2874 4.09417 58.2508 4.09228C58.2142 4.09039 58.1852 4.0885 58.1655 4.08472V1.6039Z" fill="#385CAD"/>
<path d="M61.0912 2.44582C61.0912 2.23224 61.0387 2.07535 60.9347 1.97612C60.8306 1.87689 60.676 1.82774 60.4716 1.82774C60.3375 1.82774 60.2147 1.83719 60.1041 1.85421C59.9935 1.87216 59.8941 1.8939 59.8069 1.91942C59.7901 1.89012 59.776 1.84853 59.7638 1.79278C59.7516 1.73796 59.746 1.68598 59.746 1.63684C59.8332 1.61132 59.941 1.58864 60.0685 1.57163C60.196 1.55367 60.3272 1.54517 60.4613 1.54517C60.7866 1.54517 61.0284 1.61416 61.1859 1.75214C61.3434 1.89012 61.4222 2.10654 61.4222 2.4014V4.04016C61.305 4.06284 61.1616 4.08553 60.9938 4.10821C60.8259 4.13089 60.6666 4.14223 60.5157 4.14223C60.2035 4.14223 59.9579 4.08269 59.7779 3.96267C59.5979 3.84264 59.5088 3.64796 59.5088 3.37861C59.5088 3.24914 59.5351 3.13289 59.5866 3.03082C59.6391 2.92875 59.7104 2.84275 59.8032 2.77282C59.8951 2.70288 60.0066 2.6509 60.136 2.61499C60.2653 2.57908 60.4069 2.56112 60.5616 2.56112C60.6825 2.56112 60.7866 2.5649 60.8738 2.57341C60.9609 2.58191 61.0331 2.58853 61.0903 2.59514V2.44582H61.0912ZM61.0912 2.87867C61.0341 2.87205 60.9628 2.86449 60.8775 2.85693C60.7922 2.84842 60.7106 2.84464 60.6338 2.84464C60.3816 2.84464 60.1875 2.89001 60.0497 2.98073C59.9119 3.07146 59.8435 3.20094 59.8435 3.3701C59.8435 3.4769 59.8641 3.5629 59.9063 3.62811C59.9485 3.69332 60.0029 3.74246 60.0704 3.77649C60.1379 3.81051 60.211 3.83319 60.2916 3.84453C60.3722 3.85587 60.4528 3.86154 60.5335 3.86154C60.6375 3.86154 60.735 3.85682 60.8259 3.84737C60.9169 3.83792 61.0059 3.82469 61.0931 3.80862V2.87867H61.0912Z" fill="#385CAD"/>
<path d="M62.0579 0.509419C62.0785 0.506584 62.1057 0.503749 62.1413 0.501859C62.1769 0.499969 62.2041 0.499023 62.2247 0.499023C62.2416 0.499023 62.2688 0.499969 62.3054 0.501859C62.3419 0.503749 62.371 0.505639 62.3907 0.509419V3.51003C62.3907 3.59414 62.401 3.6603 62.4207 3.70661C62.4403 3.75386 62.4657 3.78788 62.4966 3.80867C62.5266 3.82947 62.5603 3.8427 62.5969 3.84742C62.6335 3.85215 62.6672 3.85498 62.6972 3.85498C62.7338 3.85498 62.7731 3.85215 62.8135 3.84742C62.8538 3.8427 62.8875 3.83703 62.9138 3.83041C62.9306 3.86916 62.9419 3.91169 62.9494 3.95705C62.9559 4.00241 62.9606 4.04494 62.9644 4.08369C62.9175 4.09976 62.8641 4.1111 62.806 4.11771C62.7469 4.12433 62.6925 4.12716 62.6419 4.12716C62.5716 4.12716 62.5013 4.1196 62.43 4.10543C62.3597 4.09125 62.2969 4.0629 62.2416 4.02321C62.1863 3.98257 62.1413 3.92775 62.1085 3.85782C62.0747 3.78788 62.0579 3.69621 62.0579 3.5828V0.509419Z" fill="#385CAD"/>
<path d="M43.8206 0.927142C43.8168 0.8969 43.815 0.860987 43.8131 0.817514C43.8112 0.77404 43.8103 0.738127 43.8103 0.707885C43.8103 0.681423 43.8112 0.648345 43.8131 0.608652C43.815 0.568959 43.8168 0.535881 43.8206 0.509419C43.8506 0.506584 43.8881 0.503749 43.9312 0.501859C43.9743 0.499969 44.0118 0.499023 44.0418 0.499023C44.069 0.499023 44.1018 0.499969 44.1421 0.501859C44.1824 0.503749 44.2162 0.505639 44.2424 0.509419C44.2462 0.535881 44.2481 0.568959 44.2499 0.608652C44.2518 0.648345 44.2528 0.681423 44.2528 0.707885C44.2528 0.738127 44.2518 0.77404 44.2499 0.817514C44.2481 0.860987 44.2453 0.8969 44.2424 0.927142C44.2153 0.930923 44.1824 0.932813 44.1421 0.934703C44.1018 0.936593 44.0681 0.937538 44.0418 0.937538C44.0118 0.937538 43.9743 0.936593 43.9312 0.934703C43.8881 0.932813 43.8506 0.930923 43.8206 0.927142Z" fill="#385CAD"/>
<path d="M51.7206 0.927142C51.7168 0.8969 51.715 0.860987 51.7131 0.817514C51.7112 0.77404 51.7103 0.738127 51.7103 0.707885C51.7103 0.681423 51.7112 0.648345 51.7131 0.608652C51.715 0.568959 51.7168 0.535881 51.7206 0.509419C51.7506 0.506584 51.7881 0.503749 51.8312 0.501859C51.8743 0.499969 51.9118 0.499023 51.9418 0.499023C51.969 0.499023 52.0018 0.499969 52.0421 0.501859C52.0825 0.503749 52.1162 0.505639 52.1425 0.509419C52.1462 0.535881 52.1481 0.568959 52.1499 0.608652C52.1518 0.648345 52.1528 0.681423 52.1528 0.707885C52.1528 0.738127 52.1518 0.77404 52.1499 0.817514C52.1481 0.860987 52.1453 0.8969 52.1425 0.927142C52.1153 0.930923 52.0825 0.932813 52.0421 0.934703C52.0018 0.936593 51.9681 0.937538 51.9418 0.937538C51.9118 0.937538 51.8743 0.936593 51.8312 0.934703C51.7881 0.932813 51.7515 0.930923 51.7206 0.927142Z" fill="#385CAD"/>
</svg>
