<svg width="131" height="34" viewBox="0 0 131 34" fill="none" xmlns="http://www.w3.org/2000/svg">
<path d="M34.3317 9.90075C34.671 9.83837 34.9935 9.79301 35.3029 9.76088C35.6104 9.73063 35.9347 9.71362 36.2741 9.71362C36.6134 9.71362 36.9509 9.73063 37.2921 9.76088C37.6315 9.79301 37.939 9.83837 38.2165 9.90075C38.3084 10.3676 38.4021 10.98 38.494 11.7418C38.5858 12.5035 38.6327 13.148 38.6327 13.6754C39.2796 12.6188 40.1364 11.7021 41.1995 10.9252C42.2625 10.1484 43.6275 9.75899 45.2924 9.75899C45.538 9.75899 45.793 9.76655 46.0555 9.78167C46.318 9.79868 46.5411 9.82136 46.7267 9.8516C46.7886 10.1313 46.8336 10.4262 46.8654 10.7381C46.8954 11.05 46.9123 11.3751 46.9123 11.7172C46.9123 12.0895 46.8898 12.4789 46.8429 12.8834C46.7961 13.2879 46.7417 13.6754 46.6817 14.0496C46.4342 13.9872 45.2811 14.1233 45.1274 14.1233C44.2949 14.1233 38.9121 15.3557 38.9121 21.9259V33.813C38.5727 33.8754 38.1959 33.9208 37.7796 33.9529C37.3634 33.9831 36.9847 34.0001 36.6472 34.0001C36.3078 34.0001 35.931 33.9831 35.5147 33.9529C35.0985 33.9208 34.7048 33.8754 34.3354 33.813V9.90075H34.3317Z" fill="white"/>
<path d="M18.2823 26.05H6.56594L4.46229 33.8129C4.09106 33.8752 3.71795 33.9225 3.34672 33.9527C2.97548 33.983 2.60238 34 2.23114 34C1.82991 34 1.43806 33.983 1.05183 33.9527C0.665593 33.9206 0.314985 33.8752 0 33.8129L10.042 0.187125C10.4133 0.12475 10.8145 0.0774961 11.2438 0.0472537C11.6732 0.0170113 12.1157 0 12.575 0C12.9744 0 13.3906 0.0170113 13.82 0.0472537C14.2493 0.0793863 14.6637 0.12475 15.0649 0.187125L25.0638 33.8129C24.7207 33.8752 24.3345 33.9225 23.9051 33.9527C23.4758 33.983 23.0614 34 22.6602 34C22.2889 34 21.9083 33.983 21.5221 33.9527C21.1359 33.9206 20.7703 33.8752 20.4272 33.8129L18.2823 26.05ZM7.72463 21.8879H17.1236L12.4025 4.72348L7.72463 21.8879Z" fill="white"/>
<path d="M62.191 26.05H50.4746L48.371 33.8129C47.9997 33.8752 47.6266 33.9225 47.2554 33.9527C46.8842 33.983 46.5111 34 46.1398 34C45.7386 34 45.3467 33.983 44.9605 33.9527C44.5743 33.9206 44.2237 33.8752 43.9087 33.8129L53.9507 0.187125C54.3219 0.12475 54.7232 0.0774961 55.1525 0.0472537C55.5819 0.0170113 56.0244 0 56.4837 0C56.8831 0 57.2993 0.0170113 57.7287 0.0472537C58.158 0.0793863 58.5724 0.12475 58.9736 0.187125L68.9725 33.8129C68.6294 33.8752 68.2432 33.9225 67.8138 33.9527C67.3845 33.983 66.9701 34 66.5689 34C66.1976 34 65.817 33.983 65.4308 33.9527C65.0446 33.9206 64.679 33.8752 64.3358 33.8129L62.191 26.05ZM51.6333 21.8879H61.0323L56.3112 4.72348L51.6333 21.8879Z" fill="white"/>
<path d="M74.5671 0.0434734C74.1809 0.0151212 73.8303 0 73.5153 0C73.2003 0 72.8497 0.0151212 72.4634 0.0434734C72.0772 0.0718257 71.7266 0.115299 71.4116 0.170113V33.8299C71.7266 33.8866 72.0772 33.9282 72.4634 33.9565C72.8497 33.9849 73.2003 34 73.5153 34C73.8303 34 74.1809 33.9849 74.5671 33.9565C74.9533 33.9282 75.3039 33.8847 75.6189 33.8299V0.170113C75.3039 0.113409 74.9533 0.0718257 74.5671 0.0434734Z" fill="white"/>
<path d="M26.4363 13.3786H23.4083C23.3464 13.1291 23.2996 12.838 23.2677 12.5092C23.2358 12.1803 23.2208 11.8589 23.2208 11.5452C23.2208 11.2333 23.2358 10.912 23.2677 10.5831C23.2977 10.2542 23.3446 9.96501 23.4083 9.71362H30.9567V33.8111C30.6155 33.8735 30.2349 33.9208 29.8149 33.9529C29.3949 33.9831 29.0143 34.0001 28.6731 34.0001C28.3618 34.0001 27.9981 33.9831 27.5781 33.9529C27.1581 33.9208 26.7775 33.8735 26.4363 33.8111V13.3786Z" fill="white"/>
<path d="M28.5605 6.66466C30.3861 6.66466 31.866 5.17273 31.866 3.33233C31.866 1.49194 30.3861 0 28.5605 0C26.735 0 25.2551 1.49194 25.2551 3.33233C25.2551 5.17273 26.735 6.66466 28.5605 6.66466Z" fill="white"/>
<path d="M92.0001 18.1719C92.0001 16.3932 91.5519 15.1571 90.6539 14.4634C89.7577 13.7697 88.4565 13.4238 86.7503 13.4238C85.7041 13.4238 84.7235 13.507 83.8123 13.6733C82.8992 13.8396 82.0105 14.057 81.1424 14.3292C80.5743 13.335 80.2894 12.1442 80.2894 10.7568C81.3056 10.426 82.4268 10.169 83.6548 9.98751C84.881 9.80606 86.0622 9.71533 87.1984 9.71533C90.1889 9.71533 92.4613 10.4015 94.0175 11.7737C95.5718 13.146 96.3498 15.3404 96.3498 18.3533V32.8697C95.3018 33.1116 94.0325 33.3592 92.5363 33.6163C91.0401 33.8714 89.5158 34 87.9596 34C86.4934 34 85.1697 33.8639 83.9886 33.5936C82.8074 33.3214 81.8062 32.8848 80.9831 32.2818C80.16 31.6789 79.5244 30.9096 79.0763 29.9758C78.6282 29.0421 78.4032 27.9118 78.4032 26.583C78.4032 25.2864 78.6638 24.1485 79.1888 23.1694C79.7119 22.1903 80.4225 21.3757 81.3206 20.7273C82.2186 20.079 83.2498 19.597 84.416 19.2795C85.5822 18.9638 86.8084 18.8051 88.0946 18.8051C89.0508 18.8051 89.8364 18.8277 90.4495 18.8731C91.0626 18.9185 91.5782 18.9714 91.9963 19.0319V18.1719H92.0001ZM92.0001 22.5589C91.5519 22.4984 90.9839 22.4379 90.2958 22.3774C89.6077 22.317 89.0246 22.2867 88.5465 22.2867C86.6922 22.2867 85.2785 22.6345 84.3073 23.3263C83.3342 24.02 82.8486 25.0747 82.8486 26.4923C82.8486 27.3977 83.0117 28.1065 83.3417 28.6187C83.6698 29.1309 84.0823 29.5241 84.5754 29.7944C85.0685 30.0666 85.6141 30.231 86.2122 30.2915C86.8103 30.352 87.3784 30.3822 87.9165 30.3822C88.6046 30.3822 89.3133 30.3444 90.0464 30.2688C90.7795 30.1932 91.4301 30.0817 91.9982 29.9305V22.5589H92.0001Z" fill="white"/>
<path d="M130.078 18.3571C130.078 13.5845 126.212 9.71533 121.444 9.71533C118.855 9.71533 116.532 10.8589 114.949 12.6659C113.367 10.8589 111.046 9.71533 108.455 9.71533C103.687 9.71533 99.8206 13.5845 99.8206 18.3571L99.8881 33.828C100.203 33.8847 100.554 33.9281 100.94 33.9565C101.326 33.9848 101.677 34 101.992 34C102.307 34 102.657 33.9848 103.044 33.9565C103.43 33.9281 103.78 33.8847 104.095 33.828L104.116 18.3571C104.116 15.9566 106.06 14.0116 108.456 14.0116C110.853 14.0116 112.797 15.9566 112.797 18.3571L112.849 33.828C113.164 33.8847 113.515 33.9281 113.901 33.9565C114.287 33.9848 114.638 34 114.953 34C114.957 34 114.962 34 114.966 34C114.97 34 114.976 34 114.979 34C115.294 34 115.645 33.9848 116.031 33.9565C116.093 33.9527 116.151 33.947 116.211 33.9414C116.537 33.913 116.834 33.8752 117.098 33.828L117.094 25.5926L117.104 18.3552C117.104 15.9547 119.048 14.0098 121.444 14.0098C123.84 14.0098 125.784 15.9547 125.784 18.3552L125.837 33.8261C126.152 33.8828 126.502 33.9262 126.889 33.9546C127.275 33.983 127.626 33.9981 127.941 33.9981C128.256 33.9981 128.612 33.983 129.013 33.9546C129.414 33.9262 129.77 33.8828 130.085 33.8261L130.078 18.3571Z" fill="white"/>
<path d="M85.7289 3.89164C85.7289 3.46447 85.6239 3.15071 85.4158 2.95224C85.2077 2.75377 84.8983 2.65549 84.4896 2.65549C84.2215 2.65549 83.9758 2.67439 83.7546 2.70841C83.5334 2.74432 83.3346 2.7878 83.1603 2.83883C83.1265 2.78024 83.0984 2.69707 83.074 2.58555C83.0496 2.47592 83.0384 2.37196 83.0384 2.27368C83.2128 2.22264 83.4284 2.17728 83.6833 2.14326C83.9383 2.10734 84.2008 2.09033 84.4689 2.09033C85.1195 2.09033 85.6033 2.22831 85.9182 2.50427C86.2332 2.78024 86.3907 3.21308 86.3907 3.80281V7.08032C86.1564 7.12569 85.8695 7.17105 85.5339 7.21642C85.1983 7.26178 84.8795 7.28446 84.5777 7.28446C83.9533 7.28446 83.4621 7.16538 83.1021 6.92533C82.7421 6.68528 82.564 6.29591 82.564 5.75722C82.564 5.49827 82.6165 5.26578 82.7196 5.06165C82.8246 4.85751 82.9671 4.68551 83.1528 4.54564C83.3365 4.40576 83.5596 4.30181 83.8183 4.22998C84.0771 4.15815 84.3602 4.12224 84.6696 4.12224C84.9114 4.12224 85.1195 4.1298 85.2939 4.14681C85.4683 4.16383 85.6126 4.17706 85.727 4.19029V3.89164H85.7289ZM85.7289 4.75733C85.6145 4.7441 85.472 4.72898 85.3014 4.71386C85.1308 4.69685 84.9677 4.68929 84.8139 4.68929C84.3096 4.68929 83.9215 4.78001 83.6459 4.96147C83.3702 5.14292 83.2334 5.40187 83.2334 5.74021C83.2334 5.9538 83.2746 6.1258 83.359 6.25622C83.4434 6.38664 83.5521 6.48493 83.6871 6.55297C83.8221 6.62102 83.9683 6.66638 84.1296 6.68906C84.2908 6.71175 84.4521 6.72309 84.6133 6.72309C84.8214 6.72309 85.0164 6.71364 85.1983 6.69473C85.3801 6.67583 85.5583 6.64937 85.7326 6.61724V4.75733H85.7289Z" fill="white"/>
<path d="M87.975 2.75213H87.33C87.3225 2.71999 87.3188 2.6803 87.315 2.63494C87.3113 2.58957 87.3094 2.54043 87.3094 2.4894C87.3094 2.43836 87.3113 2.38544 87.315 2.3344C87.3188 2.28337 87.3244 2.2399 87.33 2.20776H88.6387V7.1694C88.5975 7.17507 88.5431 7.18074 88.4718 7.18453C88.4006 7.18831 88.3462 7.1902 88.305 7.1902C88.2712 7.1902 88.2168 7.18831 88.1437 7.18453C88.0706 7.18074 88.0125 7.17696 87.9731 7.1694V2.75213H87.975Z" fill="white"/>
<path d="M90.0071 2.2078C90.0615 2.20213 90.1121 2.19646 90.1628 2.19268C90.2134 2.1889 90.2621 2.18701 90.309 2.18701C90.3634 2.18701 90.414 2.1889 90.4609 2.19268C90.5077 2.19646 90.5584 2.20024 90.6127 2.2078C90.6259 2.32499 90.6352 2.46297 90.6427 2.62175C90.6502 2.78052 90.6521 2.92417 90.6521 3.05459C90.7871 2.81454 90.9746 2.6123 91.2165 2.44596C91.4583 2.28152 91.7771 2.19835 92.1727 2.19835C92.2064 2.19835 92.242 2.19835 92.2777 2.19835C92.3133 2.19835 92.3564 2.20213 92.4033 2.2078C92.4239 2.31743 92.4333 2.42139 92.4333 2.51968C92.4333 2.62364 92.4239 2.72381 92.4033 2.8221C92.3489 2.81643 92.3077 2.81265 92.2777 2.81265C92.2477 2.81265 92.2158 2.81265 92.182 2.81265C91.7246 2.81265 91.359 2.95252 91.0852 3.23037C90.8096 3.51012 90.6727 3.9732 90.6727 4.62152V7.16944C90.6334 7.17512 90.5771 7.18079 90.5059 7.18457C90.4346 7.18835 90.3802 7.19024 90.339 7.19024C90.3052 7.19024 90.2509 7.18835 90.1778 7.18457C90.1046 7.18079 90.0465 7.17701 90.0071 7.16944V2.2078Z" fill="white"/>
<path d="M95.4464 2.20752C95.5008 2.20185 95.5514 2.19618 95.602 2.1924C95.6526 2.18862 95.7014 2.18673 95.7483 2.18673C95.8026 2.18673 95.8532 2.18862 95.9001 2.1924C95.947 2.19618 95.9976 2.19996 96.052 2.20752C96.0651 2.32471 96.0745 2.46458 96.082 2.62524C96.0895 2.7878 96.0914 2.93334 96.0914 3.06376C96.1514 2.9409 96.2282 2.81993 96.3239 2.70463C96.4176 2.58744 96.5282 2.48348 96.6557 2.39276C96.7832 2.30203 96.9294 2.22831 97.0944 2.1735C97.2594 2.11868 97.4451 2.09033 97.6532 2.09033C97.8482 2.09033 98.015 2.11301 98.1575 2.15838C98.2981 2.20374 98.42 2.26801 98.525 2.34739C98.6281 2.42867 98.7162 2.52507 98.7875 2.63469C98.8587 2.74432 98.9244 2.86907 98.9844 3.00516C99.0575 2.90121 99.1418 2.79536 99.2356 2.68384C99.3293 2.57421 99.4362 2.47403 99.5581 2.38709C99.6781 2.30014 99.8187 2.22831 99.9762 2.1735C100.134 2.11868 100.31 2.09033 100.505 2.09033C101.103 2.09033 101.534 2.25667 101.799 2.58555C102.063 2.91633 102.196 3.38886 102.196 4.00505V7.16727C102.157 7.17294 102.1 7.17861 102.029 7.18239C101.958 7.18617 101.904 7.18806 101.862 7.18806C101.829 7.18806 101.774 7.18617 101.701 7.18239C101.628 7.17861 101.57 7.17483 101.53 7.16727V4.23187C101.53 3.70641 101.442 3.31704 101.264 3.06376C101.086 2.81048 100.82 2.68384 100.464 2.68384C100.248 2.68384 100.061 2.72542 99.8993 2.81048C99.7381 2.89554 99.6031 3.00894 99.4962 3.15071C99.3893 3.29247 99.3068 3.46069 99.2487 3.65159C99.1925 3.8425 99.1625 4.04475 99.1625 4.26022V7.16916C99.1231 7.17483 99.0668 7.1805 98.9956 7.18428C98.9244 7.18806 98.87 7.18995 98.8287 7.18995C98.795 7.18995 98.7406 7.18806 98.6675 7.18428C98.5944 7.1805 98.5363 7.17672 98.4969 7.16916V4.10523C98.4969 3.60623 98.4144 3.23576 98.2494 2.99571C98.0844 2.75566 97.8482 2.63658 97.5388 2.63658C97.3307 2.63658 97.1394 2.68762 96.9651 2.7878C96.7907 2.88797 96.6388 3.02974 96.5113 3.21119C96.3838 3.39264 96.2845 3.60812 96.2151 3.85762C96.1439 4.10712 96.1101 4.38119 96.1101 4.67984V7.16916C96.0707 7.17483 96.0145 7.1805 95.9432 7.18428C95.872 7.18806 95.8176 7.18995 95.7764 7.18995C95.7426 7.18995 95.6883 7.18806 95.6151 7.18428C95.542 7.1805 95.4839 7.17672 95.4445 7.16916V2.20752H95.4464Z" fill="white"/>
<path d="M103.775 2.75213H103.13C103.122 2.71999 103.118 2.6803 103.115 2.63494C103.111 2.58957 103.109 2.54043 103.109 2.4894C103.109 2.43836 103.111 2.38544 103.115 2.3344C103.118 2.28337 103.124 2.2399 103.13 2.20776H104.438V7.1694C104.397 7.17507 104.343 7.18074 104.272 7.18453C104.2 7.18831 104.146 7.1902 104.105 7.1902C104.071 7.1902 104.017 7.18831 103.943 7.18453C103.87 7.18074 103.812 7.17696 103.773 7.1694V2.75213H103.775Z" fill="white"/>
<path d="M105.809 2.20758C105.864 2.20191 105.914 2.19624 105.965 2.19246C106.015 2.18868 106.064 2.18679 106.111 2.18679C106.165 2.18679 106.216 2.18868 106.263 2.19246C106.31 2.19624 106.36 2.20002 106.415 2.20758C106.428 2.32477 106.437 2.47031 106.445 2.6461C106.452 2.82188 106.454 2.97309 106.454 3.10351C106.522 2.98633 106.608 2.86914 106.717 2.74817C106.823 2.62909 106.949 2.51946 107.093 2.42306C107.238 2.32666 107.405 2.24728 107.592 2.1849C107.78 2.12253 107.984 2.09229 108.207 2.09229C108.798 2.09229 109.227 2.2624 109.495 2.60263C109.763 2.94285 109.898 3.42106 109.898 4.03725V7.16923C109.857 7.1749 109.803 7.18057 109.731 7.18435C109.66 7.18813 109.606 7.19002 109.565 7.19002C109.531 7.19002 109.476 7.18813 109.403 7.18435C109.33 7.18057 109.272 7.17679 109.233 7.16923V4.23193C109.233 3.68001 109.145 3.28497 108.966 3.04492C108.788 2.80487 108.522 2.68579 108.166 2.68579C107.932 2.68579 107.708 2.73116 107.5 2.82188C107.292 2.91261 107.112 3.04492 106.962 3.21503C106.81 3.38704 106.692 3.59873 106.604 3.85201C106.516 4.10529 106.473 4.39449 106.473 4.7177V7.16923C106.433 7.1749 106.377 7.18057 106.306 7.18435C106.235 7.18813 106.18 7.19002 106.139 7.19002C106.105 7.19002 106.051 7.18813 105.978 7.18435C105.905 7.18057 105.847 7.17679 105.807 7.16923V2.20758H105.809Z" fill="white"/>
<path d="M111.589 4.78581C111.589 5.44736 111.747 5.93313 112.062 6.24501C112.377 6.55688 112.851 6.71187 113.481 6.71187C113.736 6.71187 113.972 6.69108 114.192 6.6495C114.409 6.60791 114.623 6.55121 114.831 6.47938C114.865 6.55121 114.891 6.63816 114.912 6.74211C114.932 6.84607 114.945 6.94058 114.953 7.02375C114.758 7.1088 114.529 7.17307 114.269 7.21843C114.006 7.2638 113.721 7.28648 113.412 7.28648C112.969 7.28648 112.587 7.2241 112.268 7.09746C111.949 6.97082 111.687 6.79504 111.483 6.56822C111.278 6.3414 111.126 6.07111 111.029 5.75546C110.931 5.44169 110.883 5.09579 110.883 4.71966C110.883 4.35675 110.928 4.01652 111.018 3.69897C111.108 3.38143 111.246 3.10169 111.43 2.86164C111.614 2.62159 111.852 2.43447 112.141 2.29837C112.429 2.16228 112.774 2.09424 113.177 2.09424C113.513 2.09424 113.811 2.14905 114.074 2.26057C114.336 2.3702 114.556 2.52519 114.734 2.72177C114.912 2.92023 115.045 3.1565 115.137 3.43246C115.227 3.70843 115.272 4.00707 115.272 4.33217C115.272 4.39077 115.27 4.46449 115.266 4.55521C115.262 4.64594 115.257 4.72344 115.251 4.7877H111.589V4.78581ZM114.61 4.2509C114.61 4.05054 114.584 3.85208 114.529 3.65739C114.475 3.46271 114.392 3.29259 114.278 3.14705C114.164 3.00151 114.016 2.88243 113.836 2.7917C113.654 2.70098 113.436 2.65561 113.181 2.65561C112.711 2.65561 112.345 2.79548 112.084 3.07334C111.822 3.35308 111.664 3.74434 111.612 4.2509H114.61Z" fill="white"/>
<path d="M116.331 2.2078C116.385 2.20213 116.436 2.19646 116.487 2.19268C116.537 2.1889 116.586 2.18701 116.633 2.18701C116.687 2.18701 116.738 2.1889 116.785 2.19268C116.832 2.19646 116.882 2.20024 116.937 2.2078C116.95 2.32499 116.959 2.46297 116.967 2.62175C116.974 2.78052 116.976 2.92417 116.976 3.05459C117.111 2.81454 117.298 2.6123 117.54 2.44596C117.782 2.28152 118.101 2.19835 118.497 2.19835C118.53 2.19835 118.566 2.19835 118.602 2.19835C118.639 2.19835 118.68 2.20213 118.727 2.2078C118.748 2.31743 118.757 2.42139 118.757 2.51968C118.757 2.62364 118.748 2.72381 118.727 2.8221C118.673 2.81643 118.632 2.81265 118.602 2.81265C118.572 2.81265 118.54 2.81265 118.506 2.81265C118.048 2.81265 117.683 2.95252 117.409 3.23037C117.134 3.51012 116.997 3.9732 116.997 4.62152V7.16944C116.957 7.17512 116.901 7.18079 116.83 7.18457C116.759 7.18835 116.704 7.19024 116.663 7.19024C116.629 7.19024 116.575 7.18835 116.502 7.18457C116.429 7.18079 116.37 7.17701 116.331 7.16944V2.2078Z" fill="white"/>
<path d="M122.183 3.89164C122.183 3.46447 122.078 3.15071 121.869 2.95224C121.661 2.75377 121.352 2.65549 120.943 2.65549C120.675 2.65549 120.43 2.67439 120.208 2.70841C119.987 2.74432 119.788 2.7878 119.614 2.83883C119.58 2.78024 119.552 2.69707 119.528 2.58555C119.503 2.47592 119.492 2.37196 119.492 2.27368C119.666 2.22264 119.882 2.17728 120.137 2.14326C120.392 2.10734 120.655 2.09033 120.923 2.09033C121.573 2.09033 122.057 2.22831 122.372 2.50427C122.687 2.78024 122.844 3.21308 122.844 3.80281V7.08032C122.61 7.12569 122.323 7.17105 121.988 7.21642C121.652 7.26178 121.333 7.28446 121.031 7.28446C120.407 7.28446 119.916 7.16538 119.556 6.92533C119.196 6.68528 119.018 6.29591 119.018 5.75722C119.018 5.49827 119.07 5.26578 119.173 5.06165C119.278 4.85751 119.421 4.68551 119.606 4.54564C119.79 4.40576 120.013 4.30181 120.272 4.22998C120.531 4.15815 120.814 4.12224 121.123 4.12224C121.365 4.12224 121.573 4.1298 121.748 4.14681C121.922 4.16383 122.066 4.17706 122.181 4.19029V3.89164H122.183ZM122.183 4.75733C122.068 4.7441 121.926 4.72898 121.755 4.71386C121.584 4.69685 121.421 4.68929 121.268 4.68929C120.763 4.68929 120.375 4.78001 120.1 4.96147C119.824 5.14292 119.687 5.40187 119.687 5.74021C119.687 5.9538 119.728 6.1258 119.813 6.25622C119.897 6.38664 120.006 6.48493 120.141 6.55297C120.276 6.62102 120.422 6.66638 120.583 6.68906C120.745 6.71175 120.906 6.72309 121.067 6.72309C121.275 6.72309 121.47 6.71364 121.652 6.69473C121.834 6.67583 122.012 6.64937 122.186 6.61724V4.75733H122.183Z" fill="white"/>
<path d="M124.116 0.0188385C124.157 0.0131681 124.211 0.00749762 124.283 0.00371732C124.354 -6.29763e-05 124.408 -0.00195312 124.45 -0.00195312C124.483 -0.00195312 124.538 -6.29763e-05 124.611 0.00371732C124.684 0.00749762 124.742 0.0112779 124.781 0.0188385V6.02006C124.781 6.18828 124.802 6.32059 124.841 6.41321C124.881 6.50772 124.931 6.57576 124.993 6.61735C125.053 6.65893 125.121 6.68539 125.194 6.69484C125.267 6.70429 125.334 6.70997 125.394 6.70997C125.468 6.70997 125.546 6.70429 125.627 6.69484C125.708 6.68539 125.775 6.67405 125.828 6.66082C125.861 6.73832 125.884 6.82337 125.899 6.9141C125.912 7.00483 125.921 7.08988 125.929 7.16738C125.835 7.19951 125.728 7.2222 125.612 7.23543C125.494 7.24866 125.385 7.25433 125.284 7.25433C125.143 7.25433 125.003 7.23921 124.86 7.21085C124.72 7.1825 124.594 7.1258 124.483 7.04641C124.373 6.96514 124.283 6.85551 124.217 6.71564C124.15 6.57576 124.116 6.39242 124.116 6.1656V0.0188385Z" fill="white"/>
<path d="M87.6412 0.854284C87.6337 0.7938 87.63 0.721974 87.6262 0.635027C87.6225 0.54808 87.6206 0.476255 87.6206 0.41577C87.6206 0.362846 87.6225 0.29669 87.6262 0.217304C87.63 0.137918 87.6337 0.0717627 87.6412 0.0188385C87.7012 0.0131681 87.7762 0.00749762 87.8625 0.00371732C87.9487 -6.2976e-05 88.0237 -0.00195312 88.0837 -0.00195312C88.1381 -0.00195312 88.2037 -6.2976e-05 88.2843 0.00371732C88.3649 0.00749762 88.4324 0.0112779 88.4849 0.0188385C88.4924 0.0717627 88.4962 0.137918 88.4999 0.217304C88.5037 0.29669 88.5056 0.362846 88.5056 0.41577C88.5056 0.476255 88.5037 0.54808 88.4999 0.635027C88.4962 0.721974 88.4906 0.7938 88.4849 0.854284C88.4306 0.861845 88.3649 0.865625 88.2843 0.869406C88.2037 0.873186 88.1362 0.875076 88.0837 0.875076C88.0237 0.875076 87.9487 0.873186 87.8625 0.869406C87.7762 0.865625 87.7012 0.861845 87.6412 0.854284Z" fill="white"/>
<path d="M103.441 0.854284C103.434 0.7938 103.43 0.721974 103.426 0.635027C103.423 0.54808 103.421 0.476255 103.421 0.41577C103.421 0.362846 103.423 0.29669 103.426 0.217304C103.43 0.137918 103.434 0.0717627 103.441 0.0188385C103.501 0.0131681 103.576 0.00749762 103.663 0.00371732C103.749 -6.2976e-05 103.824 -0.00195312 103.884 -0.00195312C103.938 -0.00195312 104.004 -6.2976e-05 104.084 0.00371732C104.165 0.00749762 104.232 0.0112779 104.285 0.0188385C104.292 0.0717627 104.296 0.137918 104.3 0.217304C104.304 0.29669 104.306 0.362846 104.306 0.41577C104.306 0.476255 104.304 0.54808 104.3 0.635027C104.296 0.721974 104.291 0.7938 104.285 0.854284C104.231 0.861845 104.165 0.865625 104.084 0.869406C104.004 0.873186 103.936 0.875076 103.884 0.875076C103.824 0.875076 103.749 0.873186 103.663 0.869406C103.576 0.865625 103.503 0.861845 103.441 0.854284Z" fill="white"/>
</svg>
