<svg width="39" height="40" viewBox="0 0 39 40" fill="none" xmlns="http://www.w3.org/2000/svg">
<mask id="mask0_185_1264" style="mask-type:alpha" maskUnits="userSpaceOnUse" x="0" y="0" width="39" height="40">
<path d="M19.4515 39.2277C8.81362 39.2277 0.189907 30.604 0.189907 19.9661C0.189907 9.32824 8.81362 0.704529 19.4515 0.704529C30.0894 0.704529 38.7131 9.32824 38.7131 19.9661C38.7131 30.604 30.0894 39.2277 19.4515 39.2277Z" fill="#64C9D7"/>
</mask>
<g mask="url(#mask0_185_1264)">
<path d="M19.4515 39.2277C8.81362 39.2277 0.189907 30.604 0.189907 19.9661C0.189907 9.32824 8.81362 0.704529 19.4515 0.704529C30.0894 0.704529 38.7131 9.32824 38.7131 19.9661C38.7131 30.604 30.0894 39.2277 19.4515 39.2277Z" fill="#5FBCC9"/>
<path d="M7.28872 40.413L13.8657 40.3945C14.5003 40.393 15.0136 39.8767 15.012 39.242L14.9782 22.4124C14.9713 20.0951 13.9909 17.8616 12.2207 16.1328L11.8926 15.8124L9.14885 15.8201L8.82308 16.142C7.06283 17.8808 6.09472 20.1197 6.10164 22.437L6.13544 39.2658C6.13621 39.9013 6.6533 40.4153 7.28872 40.413Z" fill="#E0E0E0"/>
<path d="M9.14905 14.9389L11.8889 14.9312L11.8914 15.8132L9.15155 15.821L9.14905 14.9389Z" fill="#E0E0E0"/>
<path d="M8.9395 13.5856L12.0904 13.5767L12.0943 14.9305L8.94334 14.9394L8.9395 13.5856Z" fill="#006870"/>
<path d="M6.09466 23.092L14.9805 23.0668L14.9943 27.9664L6.10855 27.9916L6.09466 23.092Z" fill="#006870"/>
<path d="M24.3776 40.413L30.9546 40.3945C31.5892 40.393 32.1025 39.8767 32.1009 39.242L32.0671 22.4124C32.0602 20.0951 31.0798 17.8616 29.3096 16.1328L28.9815 15.8124L26.2378 15.8201L25.912 16.142C24.1517 17.8808 23.1836 20.1197 23.1905 22.437L23.2243 39.2651C23.2259 39.9013 23.7422 40.4153 24.3776 40.413Z" fill="#E0E0E0"/>
<path d="M26.2379 14.9388L28.9778 14.931L28.9803 15.8131L26.2404 15.8209L26.2379 14.9388Z" fill="#E0E0E0"/>
<path d="M26.0291 13.5856L29.18 13.5767L29.1839 14.9305L26.0329 14.9394L26.0291 13.5856Z" fill="#006870"/>
<path d="M23.1841 23.092L32.0699 23.0668L32.0838 27.9664L23.198 27.9916L23.1841 23.092Z" fill="#006870"/>
<path d="M15.0021 41.9204L22.9828 41.8981C23.7527 41.8958 24.3758 41.2703 24.3743 40.4997L24.3335 20.0781C24.3259 17.2668 23.1349 14.5561 20.9882 12.4585L20.5902 12.0698L17.2602 12.079L16.8646 12.4701C14.7294 14.5799 13.5538 17.2967 13.5623 20.1089L13.603 40.5281C13.6045 41.2988 14.2315 41.9219 15.0021 41.9204Z" fill="white"/>
<path d="M17.261 11.0089L20.5848 10.9995L20.5879 12.0697L17.2641 12.0792L17.261 11.0089Z" fill="white"/>
<path d="M17.0068 9.36689L20.83 9.35605L20.8347 10.9987L17.0115 11.0096L17.0068 9.36689Z" fill="#0095A9"/>
<path d="M13.5547 20.9018L24.3367 20.8712L24.3535 26.8159L13.5715 26.8464L13.5547 20.9018Z" fill="#0095A9"/>
</g>
</svg>
